<?xml version="1.0" encoding="iso-8859-1"?>
<!-- Generator: Adobe Illustrator 19.0.0, SVG Export Plug-In . SVG Version: 6.00 Build 0)  -->
<svg version="1.1" id="Layer_1" xmlns="http://www.w3.org/2000/svg" xmlns:xlink="http://www.w3.org/1999/xlink" x="0px" y="0px"
	 viewBox="0 0 497.7 497.7" style="enable-background:new 0 0 497.7 497.7;" xml:space="preserve">
<circle style="fill:#BC628B;" cx="248.85" cy="248.8" r="248.8"/>
<path style="fill:#AA507D;" d="M424.85,72.8c96.8,97.6,96.8,254.4,0,352s-254.4,96.8-352,0"/>
<polygon style="fill:#FFF69F;" points="486.45,362.4 248.85,494.4 11.25,362.4 19.25,128 248.85,3.2 478.45,128 "/>
<polygon style="fill:#FFEE1A;" points="486.45,362.4 248.85,494.4 11.25,362.4 19.25,128 248.85,176 478.45,128 "/>
<g>
	<polyline style="fill:#EACE00;" points="248.85,3.2 478.45,128 486.45,362.4 248.85,494.4 	"/>
	
		<rect x="188.604" y="272.77" transform="matrix(-0.7071 0.7071 -0.7071 -0.7071 647.0327 411.929)" style="fill:#EACE00;" width="99.199" height="134.399"/>
</g>
<path style="fill:#5E6664;" d="M172.05,187.2c0,12-11.2,21.6-24.8,21.6s-24.8-9.6-24.8-21.6s11.2-21.6,24.8-21.6
	C160.85,164.8,172.05,175.2,172.05,187.2z"/>
<path style="fill:#2F423F;" d="M164.85,171.2c9.6,8.8,9.6,22.4,0,31.2s-24.8,8.8-34.4,0"/>
<path style="fill:#5E6664;" d="M375.25,187.2c0,12-11.2,21.6-24.8,21.6s-24.8-9.6-24.8-21.6s11.2-21.6,24.8-21.6
	S375.25,175.2,375.25,187.2z"/>
<path style="fill:#2F423F;" d="M368.05,171.2c9.6,8.8,9.6,22.4,0,31.2s-24.8,8.8-34.4,0"/>
<polygon style="fill:#E07F00;" points="384.05,313.6 248.85,358.4 113.65,313.6 128.05,274.4 248.85,284 369.65,274.4 "/>
<polygon style="fill:#FF9700;" points="81.65,268 248.85,239.2 416.05,268 389.65,319.2 248.85,308.8 108.05,319.2 "/>
<g>
</g>
<g>
</g>
<g>
</g>
<g>
</g>
<g>
</g>
<g>
</g>
<g>
</g>
<g>
</g>
<g>
</g>
<g>
</g>
<g>
</g>
<g>
</g>
<g>
</g>
<g>
</g>
<g>
</g>
</svg>
